<?xml version="1.0" encoding="UTF-8"?>
<svg version="1.1" xmlns="http://www.w3.org/2000/svg" width="84" height="78">
<path d="M0 0 C27.72 0 55.44 0 84 0 C84 25.74 84 51.48 84 78 C56.28 78 28.56 78 0 78 C0 52.26 0 26.52 0 0 Z " fill="#121213" transform="translate(0,0)"/>
<path d="M0 0 C1.65 0.33 3.3 0.66 5 1 C5 2.32 5 3.64 5 5 C10.28 5 15.56 5 21 5 C21.33 3.35 21.66 1.7 22 0 C23.32 0 24.64 0 26 0 C26 1.65 26 3.3 26 5 C27.19625 4.896875 28.3925 4.79375 29.625 4.6875 C32.97409719 4.39878473 34.16521963 5.10254787 37.09838867 6.9230957 C39.79720409 9.25771442 40.46157678 10.8966079 40.76049805 14.43554688 C40.79320629 16.19631086 40.79164879 17.9579366 40.76171875 19.71875 C40.76508743 20.65424683 40.76845612 21.58974365 40.77192688 22.55358887 C40.7716285 24.52715566 40.75642367 26.50076925 40.72729492 28.47412109 C40.68762231 31.49070003 40.70659017 34.50288011 40.73242188 37.51953125 C40.72486231 39.44012118 40.71390839 41.36070137 40.69921875 43.28125 C40.7096949 44.62987122 40.7096949 44.62987122 40.72038269 46.0057373 C40.62651541 50.17980699 40.33271235 52.46943471 38.07739258 56.06591797 C33.7158072 58.80709047 30.12266363 58.71967295 25.0625 58.6640625 C24.10480713 58.66884613 23.14711426 58.67362976 22.16040039 58.67855835 C20.13979445 58.68195401 18.11913332 58.67277495 16.09863281 58.65185547 C13.00981889 58.6250851 9.9246387 58.65161452 6.8359375 58.68359375 C4.86978366 58.68028959 2.90363209 58.67388324 0.9375 58.6640625 C0.01654541 58.67418365 -0.90440918 58.68430481 -1.85327148 58.69473267 C-6.09173938 58.61745144 -8.43024139 58.35782684 -12.07958984 56.06591797 C-14.77557223 51.76180574 -14.72022993 48.2707066 -14.6640625 43.28125 C-14.67123795 41.87800476 -14.67123795 41.87800476 -14.67855835 40.44641113 C-14.6819536 38.47288324 -14.67277739 36.49929882 -14.65185547 34.52587891 C-14.62508399 31.50946344 -14.65161536 28.49676883 -14.68359375 25.48046875 C-14.68028958 23.55988764 -14.67388321 21.63930884 -14.6640625 19.71875 C-14.67418365 18.81966919 -14.68430481 17.92058838 -14.69473267 16.9942627 C-14.61070057 12.49229037 -14.45400011 10.58498757 -11.61206055 6.9230957 C-8.77214301 4.83224325 -7.64262627 4.42965476 -4.1875 4.6875 C-3.39730469 4.73261719 -2.60710938 4.77773437 -1.79296875 4.82421875 C-1.20128906 4.88222656 -0.60960937 4.94023437 0 5 C0 3.35 0 1.7 0 0 Z " fill="#A88DF3" transform="translate(30,7)"/>
<path d="M0 0 C13.86 0 27.72 0 42 0 C42.020625 4.269375 42.04125 8.53875 42.0625 12.9375 C42.071604 14.28577881 42.08070801 15.63405762 42.09008789 17.02319336 C42.09258545 18.07643799 42.09508301 19.12968262 42.09765625 20.21484375 C42.10289307 21.29886475 42.10812988 22.38288574 42.11352539 23.49975586 C42 26 42 26 41 27 C38.0546443 27.10110353 35.1332244 27.13969279 32.1875 27.1328125 C30.86141724 27.13424759 30.86141724 27.13424759 29.50854492 27.13571167 C27.63557871 27.13639351 25.76261014 27.13453893 23.88964844 27.13037109 C21.01231612 27.12502289 18.13513992 27.13031593 15.2578125 27.13671875 C13.44270799 27.13605797 11.62760357 27.13477681 9.8125 27.1328125 C8.94584717 27.13483673 8.07919434 27.13686096 7.1862793 27.13894653 C1.11495009 27.11495009 1.11495009 27.11495009 0 26 C-0.08748207 24.07332493 -0.10697334 22.14348139 -0.09765625 20.21484375 C-0.09515869 19.16159912 -0.09266113 18.10835449 -0.09008789 17.02319336 C-0.08098389 15.67491455 -0.07187988 14.32663574 -0.0625 12.9375 C-0.041875 8.668125 -0.02125 4.39875 0 0 Z " fill="#151517" transform="translate(22,33)"/>
<path d="M0 0 C1.134375 0.020625 2.26875 0.04125 3.4375 0.0625 C3.7675 1.7125 4.0975 3.3625 4.4375 5.0625 C5.4275 5.0625 6.4175 5.0625 7.4375 5.0625 C7.7675 3.4125 8.0975 1.7625 8.4375 0.0625 C13.7175 0.0625 18.9975 0.0625 24.4375 0.0625 C24.7675 1.7125 25.0975 3.3625 25.4375 5.0625 C26.4275 5.0625 27.4175 5.0625 28.4375 5.0625 C28.7675 3.4125 29.0975 1.7625 29.4375 0.0625 C31.77044775 0.02008277 34.10452567 0.02157063 36.4375 0.0625 C39.04091656 2.66591656 37.4375 7.38071299 37.4375 11.0625 C23.5775 11.0625 9.7175 11.0625 -4.5625 11.0625 C-4.5625 0.08004386 -4.5625 0.08004386 0 0 Z " fill="#171619" transform="translate(26.5625,16.9375)"/>
<path d="M0 0 C1.98 0.495 1.98 0.495 4 1 C3.67 2.65 3.34 4.3 3 6 C1.68 5.67 0.36 5.34 -1 5 C-0.67 3.35 -0.34 1.7 0 0 Z " fill="#967FD8" transform="translate(52,49)"/>
<path d="M0 0 C1.98 0.495 1.98 0.495 4 1 C3.67 2.65 3.34 4.3 3 6 C1.68 5.67 0.36 5.34 -1 5 C-0.67 3.35 -0.34 1.7 0 0 Z " fill="#967FD9" transform="translate(31,49)"/>
<path d="M0 0 C1.65 0.33 3.3 0.66 5 1 C4.67 2.32 4.34 3.64 4 5 C2.35 4.67 0.7 4.34 -1 4 C-0.67 2.68 -0.34 1.36 0 0 Z " fill="#967FD9" transform="translate(41,39)"/>
<path d="M0 0 C1.32 0.66 2.64 1.32 4 2 C3.34 3.32 2.68 4.64 2 6 C0.68 5.34 -0.64 4.68 -2 4 C-1.34 2.68 -0.68 1.36 0 0 Z " fill="#9C83E1" transform="translate(42,49)"/>
<path d="M0 0 C1.32 0 2.64 0 4 0 C3.67 1.65 3.34 3.3 3 5 C1.68 4.67 0.36 4.34 -1 4 C-0.67 2.68 -0.34 1.36 0 0 Z " fill="#A68CF0" transform="translate(52,39)"/>
<path d="M0 0 C2.475 0.495 2.475 0.495 5 1 C4.67 2.32 4.34 3.64 4 5 C2.68 4.67 1.36 4.34 0 4 C0 2.68 0 1.36 0 0 Z " fill="#A68CF1" transform="translate(30,39)"/>
</svg>
